<svg width="100%" height="740" viewBox="0 0 1445 740" preserveAspectRatio="none" fill="none" xmlns="http://www.w3.org/2000/svg">
<g filter="url(#filter0_d)">
<path d="M1445 0H0V221.539C288.298 386.927 554.764 228.263 638.768 321.891C722.772 415.519 600.161 546.163 654.813 718.902C709.464 891.642 947.354 846.065 1445 786.402V0Z" fill="url(#paint0_linear)"/>
</g>
<path d="M667 236C667 238.761 664.761 241 662 241C659.239 241 657 238.761 657 236C657 233.239 659.239 231 662 231C664.761 231 667 233.239 667 236Z" fill="#E1E1E1"/>
<path d="M1097 155C1097 157.761 1094.76 160 1092 160C1089.24 160 1087 157.761 1087 155C1087 152.239 1089.24 150 1092 150C1094.76 150 1097 152.239 1097 155Z" fill="#E1E1E1"/>
<path d="M771 693C771 695.761 768.761 698 766 698C763.239 698 761 695.761 761 693C761 690.239 763.239 688 766 688C768.761 688 771 690.239 771 693Z" fill="#E1E1E1"/>
<path d="M223 205C223 207.761 220.761 210 218 210C215.239 210 213 207.761 213 205C213 202.239 215.239 200 218 200C220.761 200 223 202.239 223 205Z" fill="#E1E1E1"/>
<path d="M1396 593C1396 595.761 1393.76 598 1391 598C1388.24 598 1386 595.761 1386 593C1386 590.239 1388.24 588 1391 588C1393.76 588 1396 590.239 1396 593Z" fill="#E1E1E1"/>
<path d="M55 111.5C55 112.881 53.8807 114 52.5 114C51.1193 114 50 112.881 50 111.5C50 110.119 51.1193 109 52.5 109C53.8807 109 55 110.119 55 111.5Z" fill="#FAFAFC"/>
<path d="M1381 238.5C1381 239.881 1379.88 241 1378.5 241C1377.12 241 1376 239.881 1376 238.5C1376 237.119 1377.12 236 1378.5 236C1379.88 236 1381 237.119 1381 238.5Z" fill="#FAFAFC"/>
<path d="M655 111.5C655 112.881 653.881 114 652.5 114C651.119 114 650 112.881 650 111.5C650 110.119 651.119 109 652.5 109C653.881 109 655 110.119 655 111.5Z" fill="#FAFAFC"/>
<path d="M856 197.5C856 198.881 854.881 200 853.5 200C852.119 200 851 198.881 851 197.5C851 196.119 852.119 195 853.5 195C854.881 195 856 196.119 856 197.5Z" fill="#FAFAFC"/>
<path d="M1260 421.5C1260 422.881 1258.88 424 1257.5 424C1256.12 424 1255 422.881 1255 421.5C1255 420.119 1256.12 419 1257.5 419C1258.88 419 1260 420.119 1260 421.5Z" fill="#FAFAFC"/>
<defs>
<filter id="filter0_d" x="-4" y="0" filterUnits="userSpaceOnUse" color-interpolation-filters="sRGB">
<feFlood flood-opacity="0" result="BackgroundImageFix"/>
<feColorMatrix in="SourceAlpha" type="matrix" values="0 0 0 0 0 0 0 0 0 0 0 0 0 0 0 0 0 0 127 0"/>
<feOffset dy="4"/>
<feGaussianBlur stdDeviation="2"/>
<feColorMatrix type="matrix" values="0 0 0 0 0 0 0 0 0 0 0 0 0 0 0 0 0 0 0.25 0"/>
<feBlend mode="normal" in2="BackgroundImageFix" result="effect1_dropShadow"/>
<feBlend mode="normal" in="SourceGraphic" in2="effect1_dropShadow" result="shape"/>
</filter>
<linearGradient id="paint0_linear" x1="722.5" y1="0" x2="722.5" y2="750.474" gradientUnits="userSpaceOnUse">
<stop stop-color="#0D0D0D"/>
<stop offset="1" stop-color="#121926"/>
</linearGradient>
</defs>
</svg>
